<svg width="48" height="48" viewBox="0 0 48 48" fill="none" xmlns="http://www.w3.org/2000/svg">
<path d="M24.0001 0.368286C37.0516 0.368286 47.6318 10.9485 47.6318 24C47.6318 37.0516 37.0516 47.6318 24.0001 47.6318C10.9485 47.6318 0.36834 37.0516 0.36834 24C0.36834 10.9485 10.9485 0.368286 24.0001 0.368286ZM9.82104 30.5639C9.82104 32.78 11.6244 34.5829 13.84 34.5829H34.1602C36.3763 34.5829 38.1791 32.7795 38.1791 30.5639V17.4362C38.1791 15.2201 36.3763 13.4172 34.1602 13.4172H13.8405C11.6244 13.4172 9.82156 15.2201 9.82156 17.4362V30.5639H9.82104Z" fill="white"/>
<path d="M19.0074 23.9002L13.3295 18.3258C12.859 17.8636 12.8522 17.1079 13.3143 16.6374C13.7764 16.1669 14.5321 16.1595 15.0021 16.6222L22.4472 23.9317C23.3027 24.7725 24.6969 24.7725 25.5529 23.9317L32.998 16.6216C33.4685 16.16 34.2242 16.1674 34.6863 16.6369C35.1485 17.1074 35.1411 17.8631 34.6711 18.3252L28.9932 23.9002L34.6706 29.4752C35.1411 29.9368 35.1479 30.693 34.6858 31.163C34.4521 31.4009 34.1433 31.5201 33.834 31.5201C33.5321 31.5201 33.2301 31.4067 32.9974 31.1778L27.2885 25.5728L27.225 25.6353C26.3359 26.5081 25.168 26.9445 23.9995 26.9445C22.8311 26.9445 21.6631 26.5081 20.7741 25.6348L20.711 25.5728L15.0016 31.1778C14.769 31.4062 14.467 31.5201 14.165 31.5201C13.8563 31.5201 13.5469 31.4004 13.3132 31.163C12.8511 30.6925 12.8579 29.9368 13.3285 29.4752L19.0074 23.9002Z" fill="white"/>
</svg>
